<?xml version="1.0" encoding="UTF-8"?>
<!DOCTYPE svg PUBLIC "-//W3C//DTD SVG 1.1//EN" "http://www.w3.org/Graphics/SVG/1.1/DTD/svg11.dtd">
<svg xmlns="http://www.w3.org/2000/svg" version="1.1" width="200px" height="39px" style="shape-rendering:geometricPrecision; text-rendering:geometricPrecision; image-rendering:optimizeQuality; fill-rule:evenodd; clip-rule:evenodd" xmlns:xlink="http://www.w3.org/1999/xlink">
<g><path style="opacity:0.95" fill="#eaeaf4" d="M -0.5,-0.5 C 66.1667,-0.5 132.833,-0.5 199.5,-0.5C 199.5,12.5 199.5,25.5 199.5,38.5C 132.833,38.5 66.1667,38.5 -0.5,38.5C -0.5,25.5 -0.5,12.5 -0.5,-0.5 Z"/></g>
<g><path style="opacity:1" fill="#d8d8d8" d="M 113.5,1.5 C 141.5,1.5 169.5,1.5 197.5,1.5C 197.5,13.1667 197.5,24.8333 197.5,36.5C 169.5,36.5 141.5,36.5 113.5,36.5C 113.5,24.8333 113.5,13.1667 113.5,1.5 Z"/></g>
<g><path style="opacity:1" fill="#292c2f" d="M 159.5,12.5 C 162.5,12.5 165.5,12.5 168.5,12.5C 168.5,13.5 168.5,14.5 168.5,15.5C 160.5,15.8333 160.5,16.1667 168.5,16.5C 168.5,19.1667 168.5,21.8333 168.5,24.5C 165.5,24.5 162.5,24.5 159.5,24.5C 159.5,23.5 159.5,22.5 159.5,21.5C 168.833,20.8333 168.833,20.1667 159.5,19.5C 159.5,17.1667 159.5,14.8333 159.5,12.5 Z"/></g>
<g><path style="opacity:1" fill="#222428" d="M 170.5,11.5 C 171.5,11.5 172.5,11.5 173.5,11.5C 173.5,15.1667 173.5,18.8333 173.5,22.5C 174.822,22.67 175.989,22.3366 177,21.5C 177.498,18.5184 177.665,15.5184 177.5,12.5C 178.5,12.5 179.5,12.5 180.5,12.5C 180.665,15.8499 180.498,19.1832 180,22.5C 177.294,25.9779 174.294,26.3112 171,23.5C 170.501,19.5138 170.334,15.5138 170.5,11.5 Z"/></g>
<g><path style="opacity:1" fill="#181a1f" d="M 147.5,12.5 C 151.226,12.1774 154.893,12.5108 158.5,13.5C 157.311,14.4287 155.978,14.762 154.5,14.5C 154.5,17.8333 154.5,21.1667 154.5,24.5C 153.5,24.5 152.5,24.5 151.5,24.5C 151.5,21.1667 151.5,17.8333 151.5,14.5C 149.517,14.8432 148.183,14.1765 147.5,12.5 Z"/></g>
<g><path style="opacity:1" fill="#1c1e22" d="M 130.5,11.5 C 131.833,11.5 133.167,11.5 134.5,11.5C 133.905,17.9379 134.905,18.6046 137.5,13.5C 138.689,12.5713 140.022,12.238 141.5,12.5C 141.824,16.5546 141.491,20.5546 140.5,24.5C 140.206,15.6172 138.539,15.2839 135.5,23.5C 134.311,24.4287 132.978,24.762 131.5,24.5C 131.862,16.9193 130.529,16.7526 127.5,24C 126.365,24.7494 125.365,24.5827 124.5,23.5C 126.513,19.4734 128.513,15.4734 130.5,11.5 Z"/></g>
<g><path style="opacity:1" fill="#121519" d="M 182.5,12.5 C 183.5,12.5 184.5,12.5 185.5,12.5C 185.5,16.5 185.5,20.5 185.5,24.5C 184.5,24.5 183.5,24.5 182.5,24.5C 182.5,20.5 182.5,16.5 182.5,12.5 Z"/></g>
<g><path style="opacity:1" fill="#171a1e" d="M 143.5,12.5 C 144.5,12.5 145.5,12.5 146.5,12.5C 146.5,16.5 146.5,20.5 146.5,24.5C 145.5,24.5 144.5,24.5 143.5,24.5C 143.5,20.5 143.5,16.5 143.5,12.5 Z"/></g>
<g><path style="opacity:1" fill="#10109d" d="M 1.5,1.5 C 38.1667,1.5 74.8333,1.5 111.5,1.5C 111.5,13.1667 111.5,24.8333 111.5,36.5C 74.8333,36.5 38.1667,36.5 1.5,36.5C 1.5,24.8333 1.5,13.1667 1.5,1.5 Z"/></g>
<g><path style="opacity:1" fill="#b5b4e1" d="M 93.5,13.5 C 92.1667,13.5 90.8333,13.5 89.5,13.5C 89.5,16.5 89.5,19.5 89.5,22.5C 88.5206,19.3752 88.1872,16.0419 88.5,12.5C 90.4147,12.2155 92.0813,12.5489 93.5,13.5 Z"/></g>
<g><path style="opacity:1" fill="#fbfbfd" d="M 93.5,13.5 C 93.5,15.8333 93.5,18.1667 93.5,20.5C 93.56,21.0431 93.8933,21.3764 94.5,21.5C 95.48,18.9135 95.8134,16.2469 95.5,13.5C 96.8333,13.5 98.1667,13.5 99.5,13.5C 99.665,16.8499 99.4983,20.1832 99,23.5C 96.8471,25.4439 94.3471,25.9439 91.5,25C 90.244,24.5831 89.5774,23.7498 89.5,22.5C 89.5,19.5 89.5,16.5 89.5,13.5C 90.8333,13.5 92.1667,13.5 93.5,13.5 Z"/></g>
<g><path style="opacity:1" fill="#787ac9" d="M 95.5,13.5 C 95.8134,16.2469 95.48,18.9135 94.5,21.5C 93.8933,21.3764 93.56,21.0431 93.5,20.5C 94.1667,18.1667 94.8333,15.8333 95.5,13.5 Z"/></g>
<g><path style="opacity:1" fill="#eaeaf7" d="M 79.5,20.5 C 77.4686,18.7508 77.1353,16.7508 78.5,14.5C 79.1667,14.5 79.5,14.1667 79.5,13.5C 82.3789,12.0082 85.0456,12.3415 87.5,14.5C 86.6195,15.9705 85.2861,16.8038 83.5,17C 87.2233,18.2587 88.2233,20.5921 86.5,24C 83.9699,25.4217 81.3033,25.755 78.5,25C 76.9568,22.9551 77.2901,21.4551 79.5,20.5 Z"/></g>
<g><path style="opacity:1" fill="#534db5" d="M 79.5,20.5 C 80.675,20.281 81.675,20.6143 82.5,21.5C 81.1405,22.6653 80.1405,22.332 79.5,20.5 Z"/></g>
<g><path style="opacity:1" fill="#8f91d2" d="M 78.5,9.5 C 79.4345,10.5676 79.7678,11.901 79.5,13.5C 79.5,14.1667 79.1667,14.5 78.5,14.5C 77.1667,14.5 75.8333,14.5 74.5,14.5C 74.5,14.1667 74.5,13.8333 74.5,13.5C 75.8333,13.5 77.1667,13.5 78.5,13.5C 78.5,12.1667 78.5,10.8333 78.5,9.5 Z"/></g>
<g><path style="opacity:1" fill="#f4f3fa" d="M 74.5,13.5 C 74.5,13.8333 74.5,14.1667 74.5,14.5C 74.5,18.1667 74.5,21.8333 74.5,25.5C 72.8333,25.5 71.1667,25.5 69.5,25.5C 69.5,22.8333 69.5,20.1667 69.5,17.5C 68.5,17.5 67.5,17.5 66.5,17.5C 66.5,16.1667 66.5,14.8333 66.5,13.5C 69.1667,13.5 71.8333,13.5 74.5,13.5 Z"/></g>
<g><path style="opacity:1" fill="#ebeaf7" d="M 40.5,13.5 C 42.5,13.5 44.5,13.5 46.5,13.5C 46.4592,17.2434 47.1259,17.4101 48.5,14C 50.1341,13.5065 51.8008,13.3398 53.5,13.5C 53.8058,26.0432 55.3058,26.3765 58,14.5C 60.0408,13.5769 62.2075,13.2436 64.5,13.5C 65.5119,17.5152 66.5119,21.5152 67.5,25.5C 65.8333,25.5 64.1667,25.5 62.5,25.5C 62.395,19.6086 61.395,19.2752 59.5,24.5C 56.5719,25.4841 53.5719,25.8174 50.5,25.5C 49.8333,20.1667 49.1667,20.1667 48.5,25.5C 47.5,25.5 46.5,25.5 45.5,25.5C 44.8333,20.1667 44.1667,20.1667 43.5,25.5C 42.1667,25.5 40.8333,25.5 39.5,25.5C 40.0209,21.5191 40.3542,17.5191 40.5,13.5 Z"/></g>
<g><path style="opacity:1" fill="#f1f1f9" d="M 29.5,12.5 C 36.8798,12.043 39.7131,15.3763 38,22.5C 34.3333,26.5 30.6667,26.5 27,22.5C 25.8613,18.5789 26.6946,15.2456 29.5,12.5 Z"/></g>
<g><path style="opacity:1" fill="#2e2196" d="M 31.5,17.5 C 35.0749,18.2068 35.2416,19.2068 32,20.5C 30.3167,19.8235 30.1501,18.8235 31.5,17.5 Z"/></g>
<g><path style="opacity:1" fill="#e5e4f4" d="M 13.5,12.5 C 15.1667,12.5 16.8333,12.5 18.5,12.5C 18.3398,14.1992 18.5065,15.8659 19,17.5C 20.0635,13.7054 22.5635,12.5388 26.5,14C 23.887,17.4637 23.887,20.9637 26.5,24.5C 22.3317,26.4857 19.8317,25.1524 19,20.5C 18.5065,22.1341 18.3398,23.8008 18.5,25.5C 16.8333,25.5 15.1667,25.5 13.5,25.5C 13.5,21.1667 13.5,16.8333 13.5,12.5 Z"/></g>
<g><path style="opacity:1" fill="#fefffe" d="M 78.5,9.5 C 78.5,10.8333 78.5,12.1667 78.5,13.5C 77.1667,13.5 75.8333,13.5 74.5,13.5C 74.5,12.1667 74.5,10.8333 74.5,9.5C 75.8333,9.5 77.1667,9.5 78.5,9.5 Z"/></g>
</svg>
